<?xml version="1.0" encoding="UTF-8"?>
<svg width="170px" height="28px" viewBox="0 0 170 28" version="1.1" xmlns="http://www.w3.org/2000/svg" xmlns:xlink="http://www.w3.org/1999/xlink">
    <title>redis-dev-logo@3x</title>
    <g id="R3" stroke="none" stroke-width="1" fill="none" fill-rule="evenodd">
        <g id="RDS---Logo-D" transform="translate(-16.000000, -61.000000)">
            <g id="redis-dev-logo" transform="translate(16.000000, 61.000000)">
                <g id="2_redis-logo-reversedRGB" transform="translate(0.000000, 2.908800)" fill-rule="nonzero">
                    <path d="M42.3211008,7.8421248 C42.3169347,8.46711899 41.8135592,8.97394223 41.188608,8.9823744 C40.7260717,8.96688003 40.2720122,9.10911552 39.9009792,9.385728 C39.4969425,9.64843852 39.1596585,10.0016571 38.9158656,10.4173824 C38.5208613,10.9659438 38.2146033,11.5732246 38.00832,12.21696 L38.00832,16.28928 C37.9914371,16.9227509 37.4707234,17.4262224 36.8370432,17.4218021 C36.2194111,17.4091789 35.7241381,16.907027 35.720064,16.28928 L35.720064,7.8421248 C35.7241502,7.54381718 35.8465859,7.25935402 36.0604304,7.05132841 C36.2742749,6.84330279 36.5620068,6.72875944 36.8603136,6.7329024 C37.4811454,6.72844949 37.9914422,7.22150652 38.00832,7.8421248 L38.00832,7.9972608 C38.1424999,7.83696319 38.2933088,7.69135458 38.4582144,7.56288 C39.2616796,7.01273162 40.2148929,6.72297642 41.188608,6.7329024 C41.486803,6.72664518 41.7749534,6.84074116 41.9880334,7.04944277 C42.2011133,7.25814438 42.3211008,7.54386413 42.3211008,7.8421248 L42.3211008,7.8421248 Z" id="Path" fill="#FFFFFF"></path>
                    <path d="M42.1271808,12.061824 C42.1012704,9.1435176 44.4371528,6.75218396 47.355264,6.709632 C50.1425069,6.68727431 52.4370456,8.89568169 52.5212928,11.6817408 L52.5212928,11.790336 C52.5326702,11.8518689 52.5326702,11.9149663 52.5212928,11.9764992 C52.4338875,12.5129175 51.9453105,12.8895289 51.4043136,12.837504 L44.5705728,12.837504 C44.6730519,13.3683229 44.926178,13.8584181 45.299712,14.2492416 C45.8490918,14.8047656 46.5771673,15.1481975 47.355264,15.2188416 C48.1362322,15.2933854 48.9197303,15.1050182 49.5814656,14.6836224 C50.0257418,14.2592208 50.7156058,14.2293709 51.19488,14.6138112 C51.5773783,15.0006296 51.5773783,15.6232168 51.19488,16.0100352 C50.1383014,16.9727749 48.7447064,17.4800435 47.31648,17.4217728 C44.4141674,17.3499113 42.1051309,14.9649424 42.1271808,12.061824 L42.1271808,12.061824 Z M44.4542208,11.014656 L50.5200384,11.014656 C50.0156568,9.68812553 48.7657811,8.7927378 47.3475072,8.7419136 C45.9793683,8.75124047 44.7915828,9.68678121 44.4619776,11.014656 L44.4542208,11.014656 Z" id="Shape" fill="#FFFFFF"></path>
                    <path d="M64.0246272,16.28928 C64.0203975,16.9258302 63.5054142,17.4408135 62.868864,17.4451195 C62.317934,17.4513753 61.8412808,17.0628703 61.7363712,16.521984 C60.8779632,17.1135807 59.8622878,17.4350312 58.8198144,17.4451195 C55.9410044,17.3354686 53.6637308,14.9698674 53.6637308,12.0889728 C53.6637308,9.20807822 55.9410044,6.84247697 58.8198144,6.7329024 C59.8455993,6.7348323 60.8465474,7.04864306 61.6898304,7.6326912 L61.6898304,3.5836416 C61.7581723,2.9927673 62.2585369,2.54694025 62.8533504,2.54694025 C63.4481639,2.54694025 63.9485285,2.9927673 64.0168704,3.5836416 L64.0168704,16.28928 L64.0246272,16.28928 Z M58.8198144,9.0676992 C58.0552,9.06805851 57.3249601,9.38543198 56.8030464,9.9442176 C55.6555186,11.1438148 55.6555186,13.0341308 56.8030464,14.233728 C57.3252014,14.7920013 58.0554095,15.1088583 58.8198144,15.1088583 C59.5842193,15.1088583 60.3144274,14.7920013 60.8365824,14.233728 C61.9841102,13.0341308 61.9841102,11.1438148 60.8365824,9.9442176 C60.3204479,9.37447085 59.5885756,9.04794323 58.8198144,9.0444288 L58.8198144,9.0676992 Z" id="Shape" fill="#FFFFFF"></path>
                    <path d="M67.9030272,4.033536 C67.907178,4.34274254 67.7872453,4.64071665 67.5700462,4.86083124 C67.352847,5.08094583 67.0564984,5.20484066 66.747264,5.2048128 C66.4386772,5.20276241 66.1435445,5.07820682 65.9267954,4.85854832 C65.7100463,4.63888981 65.5894367,4.34212275 65.5915008,4.033536 L65.5915008,3.5836416 C65.5894345,3.27577238 65.7102893,2.97980282 65.9272613,2.76137463 C66.1442333,2.54294644 66.4393878,2.42011467 66.747264,2.4201216 C67.0564338,2.41584981 67.3540831,2.53731827 67.5719876,2.75668523 C67.7898921,2.97605218 67.9093669,3.27450726 67.9030272,3.5836416 L67.9030272,4.033536 Z M67.9030272,7.911936 L67.9030272,16.28928 C67.909433,16.5977266 67.7897236,16.8954361 67.5715719,17.1135879 C67.3534201,17.3317396 67.0557106,17.451449 66.747264,17.4450432 C66.4401029,17.4471257 66.1449184,17.326027 65.9277177,17.1088263 C65.710517,16.8916256 65.5894183,16.5964411 65.5915008,16.28928 L65.5915008,7.911936 C65.5808582,7.60014906 65.6984273,7.29761727 65.9168129,7.07483465 C66.1351985,6.85205203 66.4353269,6.72847635 66.747264,6.7329024 C67.0605622,6.72388437 67.3634132,6.84600524 67.5828204,7.06983007 C67.8022276,7.29365489 67.918288,7.59887979 67.9030272,7.911936 Z" id="Shape" fill="#FFFFFF"></path>
                    <path d="M69.4699008,14.3578368 C69.6548102,14.1144633 69.9319501,13.9581758 70.2358888,13.9258731 C70.5398274,13.8935704 70.8436258,13.9881157 71.0755584,14.1871872 C71.7281182,14.7465909 72.5448314,15.078721 73.4025984,15.1335168 C73.9258137,15.1398799 74.4408129,15.0030833 74.891904,14.73792 C75.1075513,14.5900621 75.2467072,14.354349 75.2719872,14.0941056 C75.2805972,14.0187645 75.2581964,13.9431616 75.2099328,13.884672 C75.2099328,13.8148608 75.1013376,13.729536 74.930688,13.6209408 C74.4009859,13.317853 73.8197923,13.1153557 73.2164352,13.0236672 L73.2164352,13.0236672 C72.5766446,12.9090188 71.9520495,12.7216402 71.3548032,12.4651776 C70.758158,12.1958322 70.2479638,11.7661949 69.8810112,11.2240896 C69.6369813,10.8165793 69.510779,10.3493624 69.5164416,9.8744064 C69.5532879,8.94436887 70.0205595,8.08435978 70.7808,7.5473664 C71.5578851,7.02708041 72.4753007,6.75645633 73.4103552,6.7716864 C74.5813838,6.81275253 75.708899,7.22572195 76.6294272,7.95072 C77.1235064,8.30425443 77.2708128,8.97382914 76.9707264,9.50208 C76.6211005,10.0067697 75.932996,10.1409501 75.4193664,9.8045952 C74.8538261,9.35681108 74.1681583,9.08686313 73.4491392,9.0289152 C72.9932605,9.018613 72.5456307,9.1515455 72.1692672,9.4089984 C71.9800229,9.50890953 71.8502003,9.69354618 71.8202112,9.9054336 C71.8108098,9.96634367 71.8277288,10.0283798 71.866752,10.0760832 C71.921957,10.1692414 72.0027163,10.2446168 72.099456,10.2932736 C72.5804314,10.5584738 73.1064663,10.7320654 73.650816,10.8052224 L73.650816,10.8052224 L73.650816,10.8052224 C74.3413749,10.9165114 75.0125954,11.1254516 75.6443136,11.4257664 C76.2799586,11.6762771 76.8220666,12.1180952 77.1956736,12.6901248 C77.4543459,13.1159942 77.593667,13.6036181 77.5990272,14.1018624 C77.5762785,15.1007402 77.0739,16.0275419 76.249344,16.5917952 C75.4298482,17.1535385 74.458177,17.4512651 73.4646528,17.4451388 C72.061572,17.3971108 70.7162071,16.8748249 69.6483072,15.9634944 C69.4094349,15.7758006 69.2559871,15.5000057 69.222439,15.1980728 C69.1888909,14.8961399 69.2780558,14.5933881 69.4699008,14.3578368 L69.4699008,14.3578368 Z" id="Path" fill="#FFFFFF"></path>
                    <g id="Group">
                        <path d="M27.8158848,19.1360256 C26.2645248,19.9117056 18.267264,23.231616 16.5685248,24.1158912 C14.8697856,25.0001664 13.9156992,25.0001664 12.566016,24.356352 C11.2163328,23.7125376 2.7071232,20.2685184 1.1712768,19.5393792 C0.4033536,19.1670528 0,18.8645376 0,18.5697792 L0,15.6454656 C0,15.6454656 11.092224,13.225344 12.876288,12.5892864 C14.660352,11.9532288 15.2886528,11.9222016 16.8167424,12.4806912 C18.344832,13.0391808 27.4435584,14.6836224 28.9561344,15.2343552 C28.9561344,15.2343552 28.9561344,17.8483968 28.9561344,18.1198848 C28.9561344,18.3913728 28.6148352,18.7249152 27.8236416,19.1360256 L27.8158848,19.1360256 Z" id="Path" fill="#A32321"></path>
                        <path d="M27.8158848,16.2039552 C26.2645248,16.9796352 18.267264,20.2995456 16.5685248,21.1915776 C14.8697856,22.0836096 13.9156992,22.068096 12.566016,21.4242816 C11.2163328,20.7804672 2.7071232,17.3442048 1.1712768,16.6073088 C-0.3645696,15.8704128 -0.3800832,15.3739776 1.1092224,14.7844608 C2.598528,14.194944 11.092224,10.85952 12.876288,10.2234624 C14.660352,9.5874048 15.2886528,9.5563776 16.8167424,10.1148672 C18.344832,10.6733568 26.295552,13.845888 27.8003712,14.3966208 C29.3051904,14.9473536 29.3517312,15.397248 27.8003712,16.2039552 L27.8158848,16.2039552 Z" id="Path" fill="#DC382D"></path>
                        <path d="M27.8158848,14.3578368 C26.2645248,15.1335168 18.267264,18.461184 16.5685248,19.3454592 C14.8697856,20.2297344 13.9156992,20.2219776 12.566016,19.58592 C11.2163328,18.9498624 2.7071232,15.5136 1.1712768,14.73792 C0.4033536,14.3966208 0,14.0863488 0,13.7993472 L0,10.85952 C0,10.85952 11.092224,8.4471552 12.876288,7.8033408 C14.660352,7.1595264 15.2886528,7.1440128 16.8167424,7.7025024 C18.344832,8.260992 27.4435584,9.8976768 28.9561344,10.4484096 C28.9561344,10.4484096 28.9561344,13.0624512 28.9561344,13.3339392 C28.9561344,13.6054272 28.6148352,13.9467264 27.8236416,14.35008 L27.8158848,14.3578368 Z" id="Path" fill="#A32321"></path>
                        <path d="M27.8158848,11.4335232 C26.2645248,12.2092032 18.267264,15.5291136 16.5685248,16.4211456 C14.8697856,17.3131776 13.9156992,17.297664 12.566016,16.6538496 C11.2163328,16.0100352 2.7071232,12.5737728 1.1712768,11.8368768 C-0.3645696,11.0999808 -0.3800832,10.6035456 1.1092224,10.006272 C2.598528,9.4089984 11.092224,6.0968448 12.876288,5.42976 C14.660352,4.7626752 15.2886528,4.7626752 16.8167424,5.3211648 C18.344832,5.8796544 26.295552,9.0444288 27.8003712,9.6029184 C29.3051904,10.161408 29.3517312,10.6035456 27.8003712,11.4102528 L27.8158848,11.4335232 Z" id="Path" fill="#DC382D"></path>
                        <path d="M27.8158848,9.4089984 C26.2645248,10.1846784 18.267264,13.5123456 16.5685248,14.3966208 C14.8697856,15.280896 13.9156992,15.280896 12.566016,14.6370816 C11.2163328,13.9932672 2.7071232,10.549248 1.1712768,9.8201088 C0.4033536,9.4477824 0,9.1375104 0,8.8505088 L0,5.9184384 C0,5.9184384 11.092224,3.5060736 12.876288,2.8622592 C14.660352,2.2184448 15.2886528,2.2029312 16.8167424,2.7614208 C18.344832,3.3199104 27.4435584,4.9565952 28.9561344,5.5150848 C28.9561344,5.5150848 28.9561344,8.1213696 28.9561344,8.3928576 C28.9561344,8.6643456 28.6148352,9.0056448 27.8236416,9.4089984 L27.8158848,9.4089984 Z" id="Path" fill="#A32321"></path>
                        <path d="M27.8158848,6.4846848 C26.2645248,7.2603648 18.267264,10.5802752 16.5685248,11.4723072 C14.8697856,12.3643392 13.9156992,12.3488256 12.566016,11.7050112 C11.2163328,11.0611968 2.7071232,7.6249344 1.1712768,6.8880384 C-0.3645696,6.1511424 -0.3800832,5.6547072 1.1092224,5.0574336 C2.598528,4.46016 11.092224,1.1480064 12.876288,0.504192 C14.660352,-0.1396224 15.2886528,-0.1628928 16.8167424,0.3955968 C18.344832,0.9540864 26.295552,4.1188608 27.8003712,4.65408 C29.3051904,5.1892992 29.3517312,5.6547072 27.8003712,6.4614144 L27.8158848,6.4846848 Z" id="Path" fill="#DC382D"></path>
                    </g>
                    <polygon id="Path" fill="#FFFFFF" points="14.93184 2.32704 16.8400128 1.6987392 16.3203072 2.9398272 18.267264 3.6689664 15.7618176 3.9249408 15.1955712 5.2823808 14.2880256 3.7698048 11.3947392 3.5138304 13.5588864 2.7303936 12.9073152 1.5358464 14.93184 2.32704 14.93184 2.32704"></polygon>
                    <polygon id="Path" fill="#FFFFFF" points="15.048192 10.2234624 10.3630848 8.2842624 17.0727168 7.252608 15.048192 10.2234624 15.048192 10.2234624"></polygon>
                    <path d="M8.53248,4.421376 C10.5182208,4.421376 12.1238784,5.04192 12.1238784,5.8098432 C12.1238784,6.5777664 10.5414912,7.1983104 8.53248,7.1983104 C6.5234688,7.1983104 4.9488384,6.5777664 4.9488384,5.8098432 C4.9488384,5.04192 6.5777664,4.421376 8.53248,4.421376 Z" id="Path" fill="#FFFFFF"></path>
                    <polygon id="Path" fill="#741012" points="21.2381184 4.033536 25.2018432 5.6081664 21.2381184 7.17504 21.2381184 4.033536 21.2381184 4.033536"></polygon>
                    <polygon id="Path" fill="#AC2823" points="21.2381184 4.033536 21.2381184 7.17504 20.8037376 7.3379328 16.8400128 5.7710592 21.2381184 4.033536 21.2381184 4.033536"></polygon>
                </g>
                <text id="developer" font-family="Quicksand-Regular, Quicksand" font-size="19.8768" font-weight="normal" fill="#FFFFFF">
                    <tspan x="77.9968056" y="20">developer</tspan>
                </text>
            </g>
        </g>
    </g>
</svg>