<?xml version="1.0" encoding="iso-8859-1"?>
<!-- Generator: Adobe Illustrator 26.0.3, SVG Export Plug-In . SVG Version: 6.00 Build 0)  -->
<svg version="1.1" id="Layer_1" xmlns="http://www.w3.org/2000/svg" xmlns:xlink="http://www.w3.org/1999/xlink" x="0px" y="0px"
	 width="50px" height="50px" viewBox="0 0 50 50" enable-background="new 0 0 50 50" xml:space="preserve">
<g>
	<path fill="#FFFFFF" d="M16.93,14.64l-0.83-0.83l-0.67,0.58l0.83,0.83c0.5,0.5,1.17,0.83,1.92,0.83c0.42,0,0.83-0.08,1.17-0.25
		c0.5-0.25,1.08-0.5,1.67-0.67c1.08-0.33,1.75-1.33,1.75-2.5v-1.25h-0.83v1.17c0,0.75-0.5,1.42-1.17,1.67s-1.25,0.5-1.83,0.75
		C18.26,15.31,17.43,15.23,16.93,14.64z"/>
	<path fill="#FFFFFF" d="M13.09,32.64l0.58,0.58l0.83-0.83c0.83-0.75,1-2,0.5-3c-0.25-0.5-0.5-1.08-0.67-1.67
		c-0.33-1.08-1.33-1.75-2.5-1.75h-1.17v0.83h1.17c0.75,0,1.42,0.5,1.67,1.17c0.17,0.67,0.42,1.25,0.75,1.83
		c0.33,0.67,0.17,1.5-0.33,2L13.09,32.64z"/>
	<path fill="#FFFFFF" d="M14.51,16.98l-0.83-0.83l-0.58,0.58l0.83,0.83c0.5,0.5,0.67,1.33,0.33,2c-0.33,0.58-0.58,1.17-0.75,1.83
		c-0.25,0.75-0.92,1.17-1.67,1.17h-1.17v0.83h1.17c1.08,0,2.08-0.75,2.5-1.75c0.17-0.58,0.42-1.17,0.67-1.67
		C15.51,18.98,15.34,17.73,14.51,16.98z"/>
	<path fill="#FFFFFF" d="M28.68,33.73c-0.5,0.25-1.08,0.5-1.67,0.67c-1.08,0.33-1.75,1.33-1.75,2.5v1.17h0.83V36.9
		c0-0.75,0.5-1.42,1.17-1.67c0.67-0.17,1.25-0.42,1.83-0.75c0.67-0.33,1.5-0.17,2,0.33l0.83,0.83l0.58-0.58l-0.83-0.83
		C30.93,33.39,29.68,33.23,28.68,33.73z"/>
	<path fill="#FFFFFF" d="M34.51,21.48c-0.17-0.67-0.42-1.25-0.75-1.83c-0.33-0.67-0.17-1.5,0.33-2l0.83-0.83l-0.58-0.58l-0.83,0.83
		c-0.83,0.75-1,2-0.5,3c0.25,0.5,0.5,1.08,0.67,1.67c0.33,1.08,1.33,1.75,2.5,1.75h1.17v-0.83h-1.17
		C35.43,22.64,34.76,22.14,34.51,21.48z"/>
	<path fill="#FFFFFF" d="M31.1,14.64c-0.5,0.5-1.33,0.67-2,0.33c-0.58-0.33-1.17-0.58-1.83-0.75c-0.75-0.25-1.17-0.92-1.17-1.67
		v-1.17h-0.83v1.17c0,1.08,0.75,2.08,1.75,2.5c0.58,0.17,1.17,0.42,1.67,0.67c0.33,0.17,0.75,0.25,1.17,0.25
		c0.67,0,1.33-0.25,1.83-0.75l0.83-0.83l-0.58-0.58L31.1,14.64z"/>
	<path fill="#FFFFFF" d="M22.76,38.06V36.9c0-1.17-0.67-2.17-1.75-2.5c-0.58-0.17-1.17-0.42-1.67-0.67c-1-0.5-2.25-0.33-3,0.5
		l-0.83,0.83l0.58,0.58l0.83-0.83c0.5-0.5,1.33-0.67,2-0.33c0.58,0.33,1.17,0.58,1.83,0.75c0.75,0.25,1.17,0.92,1.17,1.67v1.17h0.84
		V38.06z"/>
	<path fill="#FFFFFF" d="M33.68,27.73c-0.17,0.58-0.42,1.17-0.67,1.67c-0.5,1-0.33,2.25,0.5,3l0.83,0.83l0.58-0.58l-0.83-0.83
		c-0.5-0.5-0.67-1.33-0.33-2c0.33-0.58,0.58-1.17,0.75-1.83c0.25-0.75,0.92-1.17,1.67-1.17h1.17v-0.83h-1.17
		C35.01,25.98,34.01,26.64,33.68,27.73z"/>
	<polygon fill="#FFFFFF" points="21.41,22.76 18.22,24.59 18.22,24.8 21.41,26.62 21.41,25.73 19.53,24.68 21.41,23.66 	"/>
	<polygon fill="#FFFFFF" points="25.38,21.05 24.55,21.05 22.14,28.46 22.96,28.46 	"/>
	<polygon fill="#FFFFFF" points="26.3,26.62 29.49,24.79 29.49,24.59 26.3,22.75 26.3,23.64 28.17,24.69 26.3,25.72 	"/>
	<path fill="#FFFFFF" d="M17.61,5.02l-1.36,3l0.91,0.41l2.03-4.51l-4.53-2.08l-0.42,0.91l2.97,1.36C9.16,6.45,3.16,13.45,2.18,21.82
		l-0.05,0.42h0.98l0.04-0.33C4.1,13.9,9.88,7.2,17.61,5.02z"/>
	<path fill="#FFFFFF" d="M47.44,27.12l-2.83,2.01c2.08-8.19-1-16.97-7.81-22.02l-0.34-0.25l-0.49,0.85l0.27,0.2
		c6.48,4.83,9.41,13.2,7.42,21.01L41.7,26.2l-0.61,0.44l2.82,3.91l0.39-0.28l0,0v-0.01l3.56-2.54L47.44,27.12z"/>
	<path fill="#FFFFFF" d="M31.54,44.84c-7.64,2.63-16.21,0.31-21.53-5.73l3.38-0.08l-0.02-0.75L8.55,38.4l0.01,0.46l-0.04,0.02
		l0.04,0.05l0.08,4.33l0.75-0.01l-0.07-3.42c4.04,4.56,9.83,7.07,15.76,7.07c2.28,0,4.57-0.37,6.79-1.14l0.4-0.14l-0.43-0.88
		L31.54,44.84z"/>
</g>
</svg>
