<?xml version="1.0" encoding="iso-8859-1"?>
<!-- Generator: Adobe Illustrator 26.0.3, SVG Export Plug-In . SVG Version: 6.00 Build 0)  -->
<svg version="1.1" id="Layer_1" xmlns="http://www.w3.org/2000/svg" xmlns:xlink="http://www.w3.org/1999/xlink" x="0px" y="0px"
	 width="50px" height="50px" viewBox="0 0 50 50" enable-background="new 0 0 50 50" xml:space="preserve">
<path fill="#FFFFFF" d="M34.76,12.73c-1.38-4.24-5.41-7.21-9.87-7.21c-4.56,0-8.49,2.86-9.87,7.21c-4.56,0-8.28,3.71-8.28,8.28
	s3.71,8.28,8.28,8.28h0.61v7.81c-0.97,0.23-1.7,1.1-1.7,2.14c0,1.21,0.99,2.2,2.2,2.2s2.2-0.99,2.2-2.2c0-1.04-0.73-1.91-1.7-2.14
	v-7.81h4.2v3.31c-0.97,0.23-1.7,1.1-1.7,2.14c0,1.21,0.99,2.2,2.2,2.2s2.2-0.99,2.2-2.2c0-1.04-0.73-1.91-1.7-2.14v-3.31h4.86v3.13
	c-0.97,0.23-1.7,1.1-1.7,2.14c0,1.21,0.99,2.2,2.2,2.2s2.2-0.99,2.2-2.2c0-1.04-0.73-1.91-1.7-2.14v-3.13h4.2v7.63
	c-0.97,0.23-1.7,1.1-1.7,2.14c0,1.21,0.99,2.2,2.2,2.2c1.21,0,2.2-0.99,2.2-2.2c0-1.04-0.73-1.91-1.7-2.14v-7.63h2.07
	c4.56,0,8.28-3.71,8.28-8.28C43.04,16.23,39.32,12.73,34.76,12.73z M17.34,39.23c0,0.66-0.54,1.2-1.2,1.2s-1.2-0.54-1.2-1.2
	s0.54-1.2,1.2-1.2S17.34,38.57,17.34,39.23z M22.54,34.73c0,0.66-0.54,1.2-1.2,1.2s-1.2-0.54-1.2-1.2s0.54-1.2,1.2-1.2
	S22.54,34.07,22.54,34.73z M28.4,34.55c0,0.66-0.54,1.2-1.2,1.2s-1.2-0.54-1.2-1.2s0.54-1.2,1.2-1.2
	C27.86,33.35,28.4,33.89,28.4,34.55z M33.6,39.05c0,0.66-0.54,1.2-1.2,1.2s-1.2-0.54-1.2-1.2s0.54-1.2,1.2-1.2
	S33.6,38.39,33.6,39.05z M34.97,28.22H32.9v-2.43c0.97-0.23,1.7-1.1,1.7-2.14c0-1.21-0.99-2.2-2.2-2.2s-2.2,0.99-2.2,2.2
	c0,1.04,0.73,1.91,1.7,2.14v2.43h-4.2v-6.93c0.97-0.23,1.7-1.1,1.7-2.14c0-1.21-0.99-2.2-2.2-2.2s-2.2,0.99-2.2,2.2
	c0,1.04,0.73,1.91,1.7,2.14v6.93h-4.86v-6.75c0.97-0.23,1.7-1.1,1.7-2.14c0-1.21-0.99-2.2-2.2-2.2s-2.2,0.99-2.2,2.2
	c0,1.04,0.73,1.91,1.7,2.14v6.75h-4.2v-2.25c0.97-0.23,1.7-1.1,1.7-2.14c0-1.21-0.99-2.2-2.2-2.2s-2.2,0.99-2.2,2.2
	c0,1.04,0.73,1.91,1.7,2.14v2.25h-0.61c-3.93,0-7.21-3.29-7.21-7.21c0-3.93,3.29-7.21,7.21-7.21h0.85l0.11-0.42
	c1.17-4.03,4.77-6.79,8.91-6.79s7.74,2.76,8.91,6.79l0.11,0.42h0.85c4.03,0,7.21,3.08,7.43,7.21C42.19,24.93,38.9,28.22,34.97,28.22
	z M32.4,24.85c-0.66,0-1.2-0.54-1.2-1.2s0.54-1.2,1.2-1.2s1.2,0.54,1.2,1.2C33.6,24.31,33.06,24.85,32.4,24.85z M27.2,20.35
	c-0.66,0-1.2-0.54-1.2-1.2s0.54-1.2,1.2-1.2s1.2,0.54,1.2,1.2C28.4,19.81,27.86,20.35,27.2,20.35z M21.34,20.53
	c-0.66,0-1.2-0.54-1.2-1.2s0.54-1.2,1.2-1.2s1.2,0.54,1.2,1.2C22.54,20,22,20.53,21.34,20.53z M16.14,25.03
	c-0.66,0-1.2-0.54-1.2-1.2s0.54-1.2,1.2-1.2s1.2,0.54,1.2,1.2C17.34,24.5,16.8,25.03,16.14,25.03z"/>
</svg>
