<svg viewBox="0 0 360 88.26" xmlns="http://www.w3.org/2000/svg" xmlns:xlink="http://www.w3.org/1999/xlink"><clipPath id="a"><path d="m0 5.81h96.21v82.45h-96.21z"/></clipPath><g clip-path="url(#a)"><path d="m92.43 69.38c-5.13 2.68-31.73 13.62-37.43 16.62s-8.8 2.92-13.28.78-32.72-13.62-37.83-16.06c-2.55-1.21-3.89-2.24-3.89-3.21v-9.73s36.85-8 42.8-10.15 8-2.21 13.07-.36 35.33 7.32 40.33 9.15v9.58c0 1-1.15 2-3.77 3.37z" fill="#a32422"/><path d="m92.43 59.66c-5.13 2.67-31.73 13.61-37.43 16.56s-8.8 2.92-13.28.79-32.72-13.58-37.83-16.01-5.21-4.12-.2-6.08 33.16-13 39.11-15.14 8-2.21 13.07-.35 31.5 12.38 36.5 14.21 5.2 3.34.06 6z" fill="#dc382c"/><path d="m92.43 53.53c-5.13 2.67-31.73 13.61-37.43 16.56s-8.8 2.92-13.28.79-32.72-13.57-37.83-16.01c-2.55-1.22-3.89-2.25-3.89-3.22v-9.72s36.85-8 42.8-10.16 8-2.21 13.07-.35 35.33 7.31 40.33 9.14v9.59c0 1-1.15 2-3.77 3.38z" fill="#a32422"/><path d="m92.43 43.8c-5.13 2.68-31.73 13.61-37.43 16.56s-8.8 2.93-13.28.79-32.72-13.57-37.83-16.01-5.21-4.11-.2-6.07 33.16-13 39.11-15.14 8-2.21 13.07-.36 31.5 12.43 36.5 14.21 5.2 3.34.06 6z" fill="#dc382c"/><path d="m92.43 37.08c-5.13 2.68-31.73 13.62-37.43 16.57s-8.8 2.92-13.28.78-32.72-13.57-37.83-16.01c-2.55-1.21-3.89-2.24-3.89-3.21v-9.73s36.85-8 42.8-10.15 8-2.21 13.07-.36 35.33 7.32 40.33 9.15v9.59c0 1-1.15 2-3.77 3.37z" fill="#a32422"/><path d="m92.43 27.36c-5.13 2.64-31.73 13.64-37.43 16.56s-8.8 2.92-13.28.79-32.72-13.58-37.83-16.01-5.21-4.12-.2-6.08 33.16-13 39.11-15.14 8-2.21 13.07-.35 31.5 12.38 36.5 14.21 5.2 3.34.06 6z" fill="#dc382c"/></g><path d="m49.61 13.54 6.35-2.08-1.72 4.11 6.46 2.42-8.33.87-1.87 4.49-3.01-5.01-9.63-.87 7.19-2.59-2.16-3.98z" fill="#fff"/><path d="m50.01 39.78-15.56-6.46 22.29-3.42z" fill="#fff"/><path d="m28.44 20.49c6.58 0 11.91 2.07 11.91 4.62s-5.35 4.62-11.91 4.62-11.92-2.07-11.92-4.62 5.34-4.62 11.92-4.62z" fill="#fff"/><path d="m70.56 19.22 13.19 5.21-13.18 5.21z" fill="#741113"/><path d="m70.56 19.22.01 10.42-1.43.56-13.18-5.21z" fill="#ac2724"/><g fill="#fff"><path d="m248.74 1.55a1.59 1.59 0 0 1 3.17 0v42.22a1.59 1.59 0 0 1 -3.17 0z"/><path d="m289.4 15.15v28.62a1.56 1.56 0 0 1 -3.11 0v-4.77a14.78 14.78 0 0 1 -11.91 6.28c-8.35 0-15-7.18-15-15.86s6.67-15.86 15-15.86a14.75 14.75 0 0 1 11.91 6.21v-4.62a1.56 1.56 0 0 1 3.11 0zm-3.11 14.31c0-7.12-5.37-12.82-11.91-12.82s-11.91 5.7-11.91 12.82 5.43 12.76 11.91 12.76 11.91-5.64 11.91-12.76z"/><path d="m298.66 30.17v-28.62a1.59 1.59 0 0 1 3.17 0v18.26a15.15 15.15 0 0 1 12.17-6.21c8.55 0 15.35 7.12 15.35 15.93a15.56 15.56 0 0 1 -15.35 15.79 15.07 15.07 0 0 1 -12.17-6.15v4.6a1.59 1.59 0 0 1 -3.17 0zm3.17-.64a12.18 12.18 0 1 0 24.34 0c0-7.06-5.43-12.76-12.17-12.76a12.47 12.47 0 0 0 -12.17 12.23z"/><path d="m336.27 38.72a1.53 1.53 0 0 1 2.2-.19c2.2 1.61 5.7 3.69 9.72 3.69a9.57 9.57 0 0 0 6-1.95 4.8 4.8 0 0 0 2.39-3.88c-.06-1.49-.65-2.53-2.26-3.89-1.36-1-3.63-1.81-6.74-2.33l-.13-.06c-2.85-.52-5.37-1.17-7.18-2.46a6.64 6.64 0 0 1 -3.44-5.7 7.87 7.87 0 0 1 3.44-6.22 13.66 13.66 0 0 1 7.77-2.13c4.07 0 7 1.88 9.45 3.43a1.64 1.64 0 0 1 .45 2.2 1.55 1.55 0 0 1 -2.14.45c-2.33-1.55-4.66-3.17-7.76-3.17a9.54 9.54 0 0 0 -6 1.81 4.79 4.79 0 0 0 -2.04 3.68 3.84 3.84 0 0 0 1.81 3.17 15.91 15.91 0 0 0 6.47 2.2h.13a22.17 22.17 0 0 1 7.71 2.59 7.92 7.92 0 0 1 3.56 6.48 8.08 8.08 0 0 1 -3.63 6.41 12.91 12.91 0 0 1 -7.89 2.52 19.24 19.24 0 0 1 -11.72-4.53 1.45 1.45 0 0 1 -.17-2.12z"/><path d="m126.85 17.74a11.24 11.24 0 0 1 4.09-2.85 13.12 13.12 0 0 1 4.8-1.06 4.38 4.38 0 0 1 3.26 1.06 3.24 3.24 0 0 1 1 2.49 3.51 3.51 0 0 1 -1 2.49 3.23 3.23 0 0 1 -2.49 1.07c-4.1.36-9.79 4.45-9.79 10v12.6a3.66 3.66 0 0 1 -3.56 3.56 3.23 3.23 0 0 1 -2.54-1.1 3.52 3.52 0 0 1 -1.07-2.49v-26.3a3.52 3.52 0 0 1 1.07-2.49 4.75 4.75 0 0 1 2.67-.89 3.22 3.22 0 0 1 2.49 1.06 3.25 3.25 0 0 1 1.07 2.49z"/><path d="m170 29.3a3.43 3.43 0 0 1 -.89 2.32 4 4 0 0 1 -2.49 1.07h-21a6.79 6.79 0 0 0 2.28 4.31 9.5 9.5 0 0 0 6.23 3 9.27 9.27 0 0 0 6.94-1.6 3.63 3.63 0 0 1 2.67-1.07 3.07 3.07 0 0 1 2.31.89 2.9 2.9 0 0 1 0 4.27 16.07 16.07 0 0 1 -11.56 4.27 15.11 15.11 0 0 1 -11.57-5 17.53 17.53 0 0 1 -4.8-11.76 16 16 0 0 1 4.8-11.75 14.82 14.82 0 0 1 11.21-4.8 14.45 14.45 0 0 1 11 4.45 16.3 16.3 0 0 1 5 11v.35zm-15.84-9.43a9.31 9.31 0 0 0 -6 2.32 8.64 8.64 0 0 0 -2.84 4.62h18.68a8.13 8.13 0 0 0 -3.21-4.44 11.36 11.36 0 0 0 -6.58-2.5"/><path d="m203.48 43.18a3.52 3.52 0 0 1 -1.07 2.49 3.48 3.48 0 0 1 -2.49 1.07 3.84 3.84 0 0 1 -3.56-2.85 15.23 15.23 0 0 1 -9.07 2.85 15.47 15.47 0 0 1 -11.39-4.8 15.85 15.85 0 0 1 -4.63-11.75 16.88 16.88 0 0 1 4.63-11.74 15.65 15.65 0 0 1 11.39-5 14.7 14.7 0 0 1 8.89 2.85v-12.44a3.23 3.23 0 0 1 1.07-2.49 3.52 3.52 0 0 1 2.49-1.07 3.23 3.23 0 0 1 2.49 1.07 3.52 3.52 0 0 1 1.07 2.49v39.32zm-16-3.56a7.92 7.92 0 0 0 6.22-2.84 9.46 9.46 0 0 0 0-13.17 8.51 8.51 0 0 0 -6.22-2.85 7.66 7.66 0 0 0 -6.23 2.85 9.46 9.46 0 0 0 0 13.17 8.21 8.21 0 0 0 6.23 2.84"/><path d="m214 3.86v1.43a3.62 3.62 0 0 1 -1.09 2.71 3.08 3.08 0 0 1 -2.49.89 3.22 3.22 0 0 1 -2.49-1.06 3.6 3.6 0 0 1 -1.07-2.67v-1.3a3.48 3.48 0 0 1 1.07-2.49 3.52 3.52 0 0 1 2.49-1.07 3.25 3.25 0 0 1 2.49 1.07 3.23 3.23 0 0 1 1.09 2.49m-6 10.86a3.48 3.48 0 0 1 2.49-1.07 3.21 3.21 0 0 1 2.49 1.07 3.62 3.62 0 0 1 1.02 2.66v26a3 3 0 0 1 -1.07 2.49 3.52 3.52 0 0 1 -2.49 1.07 3.23 3.23 0 0 1 -2.49-1.07 3.48 3.48 0 0 1 -1.07-2.49v-26a3.58 3.58 0 0 1 1.07-2.66"/><path d="m239.24 17.21a3.49 3.49 0 0 1 1.42 2.13 4.7 4.7 0 0 1 -.35 2.67 3.54 3.54 0 0 1 -2.14 1.42 3.67 3.67 0 0 1 -2.67-.53c-2.49-1.6-4.44-2.49-6.05-2.49a5.74 5.74 0 0 0 -3.91 1.24c-.71.54-1.07.89-1.07 1.25a1.32 1.32 0 0 0 .18.89 2.38 2.38 0 0 0 .71.53 10.6 10.6 0 0 0 4.81 1.6 24.62 24.62 0 0 1 6.4 2 8.88 8.88 0 0 1 4.27 3.74 9.3 9.3 0 0 1 1.42 4.62 9.29 9.29 0 0 1 -4.09 7.65 14.32 14.32 0 0 1 -8.54 2.67c-4.09 0-8-1.6-11.74-4.62a3.78 3.78 0 0 1 -1.25-2.32 3.42 3.42 0 0 1 5.52-3 10.32 10.32 0 0 0 7.29 2.85 7.62 7.62 0 0 0 4.45-1.25c.71-.71 1.25-1.24 1.25-1.78s0-.71-.18-.89c0-.18-.36-.53-.89-.71a13.31 13.31 0 0 0 -5.34-1.88 18.48 18.48 0 0 1 -6.05-2 10.88 10.88 0 0 1 -4.27-3.73 8.29 8.29 0 0 1 -1.06-4.09 8.75 8.75 0 0 1 3.91-7.3 14.35 14.35 0 0 1 8.18-2.49c3 .18 6.23 1.42 9.79 3.74"/><path d="m133.64 79.13h-2.37v-7.92h-9.38v7.92h-2.37v-17.41h2.37v7.77h9.38v-7.77h2.37z"/><path d="m158.93 70.43a10.1 10.1 0 0 1 -.62 3.59 8.45 8.45 0 0 1 -1.75 2.82 7.88 7.88 0 0 1 -2.72 1.82 9.75 9.75 0 0 1 -7 0 7.75 7.75 0 0 1 -2.71-1.82 8.14 8.14 0 0 1 -1.75-2.84 10.7 10.7 0 0 1 0-7.18 8.14 8.14 0 0 1 1.75-2.82 7.8 7.8 0 0 1 2.71-1.84 9.75 9.75 0 0 1 7 0 7.93 7.93 0 0 1 2.72 1.84 8.45 8.45 0 0 1 1.75 2.82 10.14 10.14 0 0 1 .62 3.61zm-2.42 0a8.89 8.89 0 0 0 -.44-2.88 5.9 5.9 0 0 0 -1.24-2.15 5.36 5.36 0 0 0 -1.94-1.4 7.13 7.13 0 0 0 -5.09 0 5.49 5.49 0 0 0 -2 1.36 5.92 5.92 0 0 0 -1.25 2.15 9.65 9.65 0 0 0 0 5.76 6.09 6.09 0 0 0 1.25 2.15 5.59 5.59 0 0 0 2 1.35 7.27 7.27 0 0 0 5.09 0 5.46 5.46 0 0 0 1.94-1.35 6.07 6.07 0 0 0 1.24-2.15 8.89 8.89 0 0 0 .44-2.84z"/><path d="m175.87 73.45c.08.22.17.43.25.65.08-.23.16-.44.25-.65s.19-.41.31-.62l5.89-10.71a.68.68 0 0 1 .33-.34 1.48 1.48 0 0 1 .48-.06h1.74v17.41h-2.07v-12.79c0-.17 0-.35 0-.55s0-.39 0-.59l-6 10.88a.93.93 0 0 1 -.85.55h-.2a.92.92 0 0 1 -.85-.55l-6.15-10.92c0 .21 0 .42.05.62s0 .39 0 .56v12.79h-2.05v-17.41h1.73a1.59 1.59 0 0 1 .49.06.77.77 0 0 1 .33.34l6 10.72a5.76 5.76 0 0 1 .32.61z"/><path d="m205 61.72v1.92h-8.36v5.78h6.77v1.85h-6.77v5.94h8.36v1.92h-10.78v-17.41z"/><path d="m238.92 70.43a10.1 10.1 0 0 1 -.62 3.57 8.29 8.29 0 0 1 -1.75 2.82 7.79 7.79 0 0 1 -2.72 1.82 9.75 9.75 0 0 1 -7 0 7.84 7.84 0 0 1 -2.71-1.82 8.29 8.29 0 0 1 -1.75-2.82 10.7 10.7 0 0 1 0-7.18 8.29 8.29 0 0 1 1.75-2.82 7.89 7.89 0 0 1 2.71-1.84 9.75 9.75 0 0 1 7 0 7.84 7.84 0 0 1 2.72 1.84 8.29 8.29 0 0 1 1.75 2.82 10.14 10.14 0 0 1 .62 3.61zm-2.42 0a8.89 8.89 0 0 0 -.44-2.88 5.9 5.9 0 0 0 -1.24-2.15 5.36 5.36 0 0 0 -1.94-1.4 7.13 7.13 0 0 0 -5.09 0 5.49 5.49 0 0 0 -1.95 1.36 6.06 6.06 0 0 0 -1.25 2.15 9.86 9.86 0 0 0 0 5.76 6.25 6.25 0 0 0 1.25 2.15 5.59 5.59 0 0 0 1.95 1.35 7.27 7.27 0 0 0 5.09 0 5.46 5.46 0 0 0 1.94-1.35 6.07 6.07 0 0 0 1.24-2.15 8.89 8.89 0 0 0 .44-2.84z"/><path d="m257.73 61.72v1.92h-8.36v6.09h7.14v1.92h-7.14v7.48h-2.37v-17.41z"/><path d="m277.75 71.87v7.26h-2.35v-17.41h4.92a10.43 10.43 0 0 1 2.86.34 5.51 5.51 0 0 1 2 1 4 4 0 0 1 1.16 1.53 5.43 5.43 0 0 1 .08 3.72 4.51 4.51 0 0 1 -.84 1.44 5 5 0 0 1 -1.35 1.09 6.81 6.81 0 0 1 -1.81.68 2.48 2.48 0 0 1 .78.74l5.08 6.91h-2.09a1 1 0 0 1 -.95-.5l-4.52-6.22a1.36 1.36 0 0 0 -.45-.42 1.69 1.69 0 0 0 -.73-.12zm0-1.72h2.46a5.89 5.89 0 0 0 1.79-.25 3.64 3.64 0 0 0 1.31-.7 2.86 2.86 0 0 0 .8-1.09 3.48 3.48 0 0 0 .27-1.39 2.8 2.8 0 0 0 -1-2.35 5 5 0 0 0 -3.06-.79h-2.57z"/><path d="m306.4 61.72v1.92h-8.4v5.78h6.76v1.85h-6.76v5.94h8.36v1.92h-10.69v-17.41z"/><path d="m329.74 70.43a9.85 9.85 0 0 1 -.62 3.56 8 8 0 0 1 -1.75 2.75 8 8 0 0 1 -2.71 1.77 9.6 9.6 0 0 1 -3.5.62h-6.51v-17.41h6.51a9.4 9.4 0 0 1 3.5.63 7.82 7.82 0 0 1 2.71 1.77 8.14 8.14 0 0 1 1.75 2.75 9.89 9.89 0 0 1 .62 3.56zm-2.42 0a8.72 8.72 0 0 0 -.44-2.86 5.86 5.86 0 0 0 -1.24-2.14 5.2 5.2 0 0 0 -1.94-1.34 6.68 6.68 0 0 0 -2.54-.46h-4.16v13.59h4.14a6.68 6.68 0 0 0 2.54-.46 5.29 5.29 0 0 0 1.94-1.33 5.9 5.9 0 0 0 1.24-2.13 8.78 8.78 0 0 0 .46-2.87z"/><path d="m340.6 79.13h-2.36v-17.41h2.36z"/><path d="m359 64.44a1 1 0 0 1 -.23.28.53.53 0 0 1 -.32.09.88.88 0 0 1 -.48-.21 5.94 5.94 0 0 0 -.69-.45 5.32 5.32 0 0 0 -1-.46 4.25 4.25 0 0 0 -1.42-.21 4 4 0 0 0 -1.4.22 3 3 0 0 0 -1 .57 2.46 2.46 0 0 0 -.61.86 2.67 2.67 0 0 0 -.21 1.06 2 2 0 0 0 .36 1.21 3.05 3.05 0 0 0 .95.82 7.21 7.21 0 0 0 1.34.59l1.53.52q.78.27 1.53.6a5.18 5.18 0 0 1 1.33.84 3.81 3.81 0 0 1 .95 1.25 4.2 4.2 0 0 1 .36 1.83 5.85 5.85 0 0 1 -.39 2.14 5 5 0 0 1 -1.13 1.74 5.18 5.18 0 0 1 -1.84 1.17 6.8 6.8 0 0 1 -2.47.43 7.53 7.53 0 0 1 -3.08-.62 7.23 7.23 0 0 1 -2.38-1.66l.68-1.11a1 1 0 0 1 .24-.23.56.56 0 0 1 .31-.09 1 1 0 0 1 .58.27 8 8 0 0 0 .82.6 6.92 6.92 0 0 0 1.19.61 4.79 4.79 0 0 0 1.71.27 4.63 4.63 0 0 0 1.5-.23 3.22 3.22 0 0 0 1.11-.65 3 3 0 0 0 .7-1 3.38 3.38 0 0 0 .24-1.3 2.19 2.19 0 0 0 -.36-1.3 3.07 3.07 0 0 0 -.94-.84 6.5 6.5 0 0 0 -1.33-.58l-1.52-.47a15.56 15.56 0 0 1 -1.53-.58 5 5 0 0 1 -1.33-.85 3.82 3.82 0 0 1 -.94-1.31 4.63 4.63 0 0 1 -.36-1.94 4.57 4.57 0 0 1 .36-1.78 4.4 4.4 0 0 1 1-1.53 5.09 5.09 0 0 1 1.69-1.07 6.06 6.06 0 0 1 2.3-.4 7.32 7.32 0 0 1 2.66.46 6.08 6.08 0 0 1 2.1 1.34z"/></g></svg>