<?xml version="1.0" encoding="iso-8859-1"?>
<!-- Generator: Adobe Illustrator 26.0.3, SVG Export Plug-In . SVG Version: 6.00 Build 0)  -->
<svg version="1.1" id="Layer_1" xmlns="http://www.w3.org/2000/svg" xmlns:xlink="http://www.w3.org/1999/xlink" x="0px" y="0px"
	 width="50px" height="50px" viewBox="0 0 50 50" enable-background="new 0 0 50 50" xml:space="preserve">
<g>
	<path fill="#FFFFFF" d="M38.77,33.82H34.2v-2.15H16.73v2.15h-4.56V19.09h4.56v1.67H34.2v-1.67h4.56L38.77,33.82L38.77,33.82z
		 M34.78,33.24h3.4V19.67h-3.4v1.67H16.15v-1.67h-3.4v13.57h3.4v-2.15h18.63V33.24z"/>
	<g>
		<path fill="#FFFFFF" d="M20.97,26.31v-0.16l2.48-1.42v0.7L22,26.22l1.46,0.82v0.69L20.97,26.31z"/>
		<path fill="#FFFFFF" d="M25.9,23.4h0.64l-1.88,5.75h-0.63L25.9,23.4z"/>
		<path fill="#FFFFFF" d="M27.25,27.03l1.46-0.8l-1.46-0.82v-0.69l2.48,1.43v0.16l-2.48,1.43V27.03z"/>
	</g>
	<path fill="#FFFFFF" d="M27.3,14.26c0-1.25-0.99-2.24-2.24-2.24s-2.24,0.99-2.24,2.24s0.99,2.24,2.24,2.24S27.3,15.5,27.3,14.26z
		 M25.06,16.18c-1.06,0-1.92-0.86-1.92-1.92s0.86-1.92,1.92-1.92s1.92,0.86,1.92,1.92S26.12,16.18,25.06,16.18z M27.78,10.38
		c-0.19,0.19-0.51,0.26-0.77,0.13c-0.22-0.13-0.45-0.22-0.7-0.29c-0.29-0.1-0.45-0.35-0.45-0.64V9.13h-0.32v0.45
		c0,0.42,0.29,0.8,0.67,0.96c0.22,0.06,0.45,0.16,0.64,0.26c0.13,0.06,0.29,0.1,0.45,0.1c0.26,0,0.51-0.1,0.7-0.29l0.32-0.32
		l-0.22-0.22L27.78,10.38z M29.73,13.45c-0.29,0-0.54-0.19-0.64-0.45c-0.06-0.26-0.16-0.48-0.29-0.7c-0.13-0.26-0.06-0.58,0.13-0.77
		l0.32-0.32l-0.22-0.22l-0.32,0.32c-0.32,0.29-0.38,0.77-0.19,1.15c0.1,0.19,0.19,0.42,0.26,0.64c0.13,0.42,0.51,0.67,0.96,0.67
		h0.45v-0.32L29.73,13.45L29.73,13.45z M28.77,15.41c-0.06,0.22-0.16,0.45-0.26,0.64c-0.19,0.38-0.13,0.86,0.19,1.15l0.32,0.32
		l0.22-0.22l-0.32-0.32c-0.19-0.19-0.26-0.51-0.13-0.77c0.13-0.22,0.22-0.45,0.29-0.7c0.1-0.29,0.35-0.45,0.64-0.45h0.45v-0.32
		h-0.45C29.29,14.74,28.9,14.99,28.77,15.41z M26.85,17.71c-0.19,0.1-0.42,0.19-0.64,0.26c-0.42,0.13-0.67,0.51-0.67,0.96v0.45h0.32
		v-0.45c0-0.29,0.19-0.54,0.45-0.64c0.26-0.06,0.48-0.16,0.7-0.29c0.26-0.13,0.58-0.06,0.77,0.13l0.32,0.32l0.22-0.22L28,17.91
		C27.72,17.59,27.24,17.52,26.85,17.71z M23.91,17.97c-0.22-0.06-0.45-0.16-0.64-0.26c-0.38-0.19-0.86-0.13-1.15,0.19l-0.32,0.32
		l0.22,0.22l0.32-0.32c0.19-0.19,0.51-0.26,0.77-0.13c0.22,0.13,0.45,0.22,0.7,0.29c0.29,0.1,0.45,0.35,0.45,0.64v0.45h0.32v-0.45
		C24.58,18.48,24.32,18.1,23.91,17.97z M21.34,15.41c-0.13-0.42-0.51-0.67-0.96-0.67h-0.45v0.32h0.45c0.29,0,0.54,0.19,0.64,0.45
		c0.06,0.26,0.16,0.48,0.29,0.7c0.13,0.26,0.06,0.58-0.13,0.77l-0.32,0.32l0.22,0.22l0.32-0.32c0.32-0.29,0.38-0.77,0.19-1.15
		C21.5,15.86,21.41,15.63,21.34,15.41z M21.09,10.96l-0.22,0.22l0.32,0.32c0.19,0.19,0.26,0.51,0.13,0.77
		c-0.13,0.22-0.22,0.45-0.29,0.7c-0.1,0.29-0.35,0.45-0.64,0.45h-0.45v0.32h0.45c0.42,0,0.8-0.29,0.96-0.67
		c0.06-0.22,0.16-0.45,0.26-0.64c0.19-0.38,0.13-0.86-0.19-1.15L21.09,10.96z M22.82,10.92c0.16,0,0.32-0.03,0.45-0.1
		c0.19-0.1,0.42-0.19,0.64-0.26c0.42-0.13,0.67-0.51,0.67-0.96V9.13h-0.32v0.45c0,0.29-0.19,0.54-0.45,0.64s-0.48,0.19-0.7,0.29
		c-0.26,0.13-0.58,0.1-0.77-0.13l-0.32-0.32l-0.26,0.22l0.32,0.32C22.27,10.8,22.53,10.92,22.82,10.92z"/>
	<rect x="24.26" y="19.04" fill="#FFFFFF" width="0.32" height="1.78"/>
	<rect x="25.54" y="19.12" fill="#FFFFFF" width="0.32" height="1.78"/>
	<path fill="#FFFFFF" d="M46.78,35.56h-4.53v-4.12h-4.06V20.42h8.6v15.14H46.78z M42.83,34.98h3.37V21.01h-7.43v9.85h4.06V34.98z"/>
	<path fill="#FFFFFF" d="M12.75,31.44h-8.6V16.3h4.53v4.12h4.06v11.02C12.74,31.44,12.75,31.44,12.75,31.44z M4.74,30.85h7.43V21
		H8.11v-4.12H4.74V30.85z"/>
</g>
</svg>
