<?xml version="1.0" encoding="UTF-8"?>
<svg width="171px" height="26px" viewBox="0 0 171 26" version="1.1" xmlns="http://www.w3.org/2000/svg" xmlns:xlink="http://www.w3.org/1999/xlink">
    <!-- Generator: Sketch 64 (93537) - https://sketch.com -->
    <title>Redis-logo</title>
    <desc>Created with Sketch.</desc>
    <g id="R3" stroke="none" stroke-width="1" fill="none" fill-rule="evenodd">
        <g id="RDS---Homepage-Visual-Design-Create" transform="translate(-16.000000, -63.000000)">
            <g id="Hero" transform="translate(0.000000, 44.000000)">
                <g id="Nav" transform="translate(16.000000, 16.000000)">
                    <g id="Redis-logo" transform="translate(0.000000, 3.000000)">
                        <text id="Redis-Developer" font-family="Helvetica" font-size="17" font-weight="normal" fill="#FFFFFF">
                            <tspan x="38" y="19">Redis Developer</tspan>
                        </text>
                        <g id="redis-cube" transform="translate(0.000000, 0.000000)" fill-rule="nonzero">
                            <g id="Group">
                                <path d="M28.8356436,19.9277228 C27.249505,20.7534653 19.0336634,24.1277228 17.290099,25.039604 C15.5465347,25.9514851 14.5722772,25.9306931 13.1910891,25.2831683 C11.809901,24.6356436 3.07128713,21.0891089 1.48514851,20.3405941 C0.698019802,19.9633663 0.297029703,19.6455446 0.297029703,19.3485149 L0.297029703,16.3366337 C0.297029703,16.3366337 11.6732673,13.8594059 13.5089109,13.2 C15.3445545,12.5405941 15.9831683,12.5168317 17.5455446,13.090099 C19.1079208,13.6633663 28.4554455,15.3594059 30,15.9237624 L30,18.8940594 C30,19.1910891 29.6435644,19.5178218 28.8356436,19.939604 L28.8356436,19.9277228 Z" id="Path" fill="#A32321"></path>
                                <path d="M28.8356436,16.9306931 C27.249505,17.7564356 19.0336634,21.1306931 17.290099,22.0425743 C15.5465347,22.9544554 14.5722772,22.9336634 13.1910891,22.2861386 C11.809901,21.6386139 3.07128713,18.0891089 1.48514851,17.3376238 C-0.100990099,16.5861386 -0.121782178,16.0663366 1.42574257,15.460396 C2.97326733,14.8544554 11.6732673,11.4475248 13.5089109,10.7881188 C15.3445545,10.1287129 15.9831683,10.0990099 17.5455446,10.6930693 C19.1079208,11.2871287 27.2732673,14.4980198 28.8118812,15.0653465 C30.350495,15.6326733 30.4158416,16.0960396 28.829703,16.9247525 L28.8356436,16.9306931 Z" id="Path" fill="#DC382D"></path>
                                <path d="M28.8356436,15.029703 C27.249505,15.8554455 19.0336634,19.2326733 17.290099,20.1445545 C15.5465347,21.0564356 14.5722772,21.0356436 13.1910891,20.3881188 C11.809901,19.7405941 3.07128713,16.1970297 1.48514851,15.4455446 C0.698019802,15.0683168 0.297029703,14.750495 0.297029703,14.450495 L0.297029703,11.450495 C0.297029703,11.450495 11.6732673,8.97326733 13.5089109,8.31683168 C15.3445545,7.66039604 15.9831683,7.63366337 17.5455446,8.20693069 C19.1079208,8.78019802 28.4554455,10.4613861 30,11.0287129 L30,13.9990099 C30,14.2960396 29.6435644,14.6227723 28.8356436,15.0415842 L28.8356436,15.029703 Z" id="Path" fill="#A32321"></path>
                                <path d="M28.8356436,12.0267327 C27.249505,12.8524752 19.0336634,16.229703 17.290099,17.1415842 C15.5465347,18.0534653 14.5722772,18.0326733 13.1910891,17.3851485 C11.809901,16.7376238 3.07128713,13.1940594 1.48514851,12.4425743 C-0.100990099,11.6910891 -0.121782178,11.1712871 1.42574257,10.5653465 C2.97326733,9.95940594 11.6732673,6.54950495 13.5089109,5.89306931 C15.3445545,5.23663366 15.9831683,5.20990099 17.5455446,5.78316832 C19.1079208,6.35643564 27.2732673,9.6029703 28.8118812,10.170297 C30.350495,10.7376238 30.4158416,11.2009901 28.829703,12.0267327 L28.8356436,12.0267327 Z" id="Path" fill="#DC382D"></path>
                                <path d="M28.8356436,9.95346535 C27.249505,10.7792079 19.0336634,14.1564356 17.290099,15.0683168 C15.5465347,15.980198 14.5722772,15.9594059 13.1910891,15.3089109 C11.809901,14.6584158 3.07128713,11.1207921 1.48514851,10.3663366 C0.698019802,9.99207921 0.297029703,9.67425743 0.297029703,9.37425743 L0.297029703,6.37128713 C0.297029703,6.37128713 11.6732673,3.8970297 13.5089109,3.23762376 C15.3445545,2.57821782 15.9831683,2.55445545 17.5455446,3.12772277 C19.1079208,3.7009901 28.4554455,5.38514851 30,5.94059406 L30,8.91089109 C30,9.20792079 29.6435644,9.53465347 28.8356436,9.95346535 Z" id="Path" fill="#A32321"></path>
                                <path d="M28.8356436,6.95049505 C27.249505,7.77623762 19.0336634,11.1534653 17.290099,12.0653465 C15.5465347,12.9772277 14.5722772,12.9564356 13.1910891,12.3059406 C11.809901,11.6554455 3.07128713,8.11782178 1.48514851,7.36336634 C-0.100990099,6.60891089 -0.121782178,6.0950495 1.42574257,5.48910891 C2.97326733,4.88316832 11.6732673,1.48514851 13.5089109,0.813861386 C15.3445545,0.142574257 15.9831683,0.133663366 17.5455446,0.703960396 C19.1079208,1.27425743 27.2732673,4.52673267 28.8118812,5.09108911 C30.350495,5.65544554 30.4158416,6.12475248 28.829703,6.95049505 L28.8356436,6.95049505 Z" id="Path" fill="#DC382D"></path>
                            </g>
                            <polygon id="Path" fill="#FFFFFF" points="15.6148515 2.68217822 17.5722772 2.04356436 17.0435644 3.31188119 19.039604 4.05742574 16.4673267 4.32475248 15.8910891 5.71188119 14.9584158 4.16435644 11.9881188 3.9 14.2039604 3.0980198 13.5386139 1.87128713 15.6148515 2.68217822 15.6148515 2.68217822"></polygon>
                            <polygon id="Path" fill="#FFFFFF" points="15.7366337 10.7851485 10.9306931 8.79207921 17.8158416 7.73762376 15.7366337 10.7851485 15.7366337 10.7851485"></polygon>
                            <path d="M9.07722772,4.82970297 C11.1089109,4.82970297 12.7544554,5.46831683 12.7544554,6.25544554 C12.7544554,7.04257426 11.1089109,7.68118812 9.07722772,7.68118812 C7.04554455,7.68118812 5.3970297,7.04257426 5.3970297,6.25544554 C5.3970297,5.46831683 7.04554455,4.82970297 9.07722772,4.82970297 L9.07722772,4.82970297 Z" id="Path" fill="#FFFFFF"></path>
                            <polygon id="Path" fill="#741012" points="22.0811881 4.43762376 26.1564356 6.04752475 22.0841584 7.65445545 22.0811881 4.43762376 22.0811881 4.43762376"></polygon>
                            <polygon id="Path" fill="#AC2823" points="22.0811881 4.43762376 22.0841584 7.65445545 21.6445545 7.82970297 17.5752475 6.21980198 22.0811881 4.43762376 22.0811881 4.43762376"></polygon>
                        </g>
                    </g>
                </g>
            </g>
        </g>
    </g>
</svg>