<?xml version="1.0" encoding="iso-8859-1"?>
<!-- Generator: Adobe Illustrator 26.0.3, SVG Export Plug-In . SVG Version: 6.00 Build 0)  -->
<svg version="1.1" id="Layer_1" xmlns="http://www.w3.org/2000/svg" xmlns:xlink="http://www.w3.org/1999/xlink" x="0px" y="0px"
	 width="50px" height="50px" viewBox="0 0 50 50" enable-background="new 0 0 50 50" xml:space="preserve">
<path fill="#FFFFFF" d="M33.35,31.46c5.3-5.7,5-14.5-0.7-19.8c-2.6-2.5-6-3.8-9.6-3.8c-7.7,0-14,6.3-14,14c0,3.7,1.5,7.3,4.1,9.9
	c5.3,5.3,14,5.5,19.5,0.3l7.6,7.6l0.7-0.7L33.35,31.46z M13.85,31.06c-5.1-5.1-5.1-13.3,0-18.4s13.3-5.1,18.4,0s5.1,13.3,0,18.4
	S18.95,36.16,13.85,31.06z M31.75,17.76l-3.2,3.6l-5.5-4l-9.6,9.5l0.7,0.7l8.9-8.9l5.6,4.1l3.8-4.3L31.75,17.76z"/>
</svg>
